                                                                        S      1
,,13HBeltComponent,13HBeltComponent,7Hunknown,7Hunknown,32,38,7,99,15,, G      1
1.,2,2HMM,1,0.08,15H20250701.005528,0.01,10000.,7Hunknown,7Hunknown,11, G      2
0,15H20250629.134801;                                                   G      3
     186       1                                                00000000D      1
     186            -143       1       0                               0D      2
     514       2                                                00010000D      3
     514                       1       1                               0D      4
     510       3                                                00010000D      5
     510            -143       1       1                               0D      6
     510       4                                                00010000D      7
     510            -143       1       1                               0D      8
     510       5                                                00010000D      9
     510            -143       1       1                               0D     10
     510       6                                                00010000D     11
     510            -143       1       1                               0D     12
     510       7                                                00010000D     13
     510            -143       1       1                               0D     14
     510       8                                                00010000D     15
     510            -143       1       1                               0D     16
     510       9                                                00010000D     17
     510            -143       1       1                               0D     18
     510      10                                                00010000D     19
     510            -143       1       1                               0D     20
     510      11                                                00010000D     21
     510            -143       1       1                               0D     22
     510      12                                                00010000D     23
     510            -143       1       1                               0D     24
     510      13                                                00010000D     25
     510            -143       1       1                               0D     26
     510      14                                                00010000D     27
     510            -143       1       1                               0D     28
     508      15                                                00010000D     29
     508                       1       1                               0D     30
     508      16                                                00010000D     31
     508                       1       1                               0D     32
     508      17                                                00010000D     33
     508                       1       1                               0D     34
     508      18                                                00010000D     35
     508                       1       1                               0D     36
     508      19                                                00010000D     37
     508                       1       1                               0D     38
     508      20                                                00010000D     39
     508                       1       1                               0D     40
     508      21                                                00010000D     41
     508                       1       1                               0D     42
     508      22                                                00010000D     43
     508                       1       1                               0D     44
     508      23                                                00010000D     45
     508                       1       1                               0D     46
     508      24                                                00010000D     47
     508                       1       1                               0D     48
     508      25                                                00010000D     49
     508                       3       1                               0D     50
     508      28                                                00010000D     51
     508                       3       1                               0D     52
     126      31                                                00010000D     53
     126       0              15       0                               0D     54
     126      46                                                00010000D     55
     126       0               4       0                               0D     56
     126      50                                                00010000D     57
     126       0              11       0                               0D     58
     126      61                                                00010000D     59
     126       0               4       0                               0D     60
     126      65                                                00010000D     61
     126       0               7       0                               0D     62
     126      72                                                00010000D     63
     126       0               7       0                               0D     64
     126      79                                                00010000D     65
     126       0               4       0                               0D     66
     126      83                                                00010000D     67
     126       0               5       0                               0D     68
     126      88                                                00010000D     69
     126       0               5       0                               0D     70
     126      93                                                00010000D     71
     126       0               4       0                               0D     72
     126      97                                                00010000D     73
     126       0               5       0                               0D     74
     126     102                                                00010000D     75
     126       0               4       0                               0D     76
     126     106                                                00010000D     77
     126       0               4       0                               0D     78
     126     110                                                00010000D     79
     126       0               5       0                               0D     80
     126     115                                                00010000D     81
     126       0               5       0                               0D     82
     126     120                                                00010000D     83
     126       0               4       0                               0D     84
     126     124                                                00010000D     85
     126       0               4       0                               0D     86
     126     128                                                00010000D     87
     126       0               4       0                               0D     88
     126     132                                                00010000D     89
     126       0               4       0                               0D     90
     126     136                                                00010000D     91
     126       0               4       0                               0D     92
     126     140                                                00010000D     93
     126       0               4       0                               0D     94
     126     144                                                00010000D     95
     126       0               4       0                               0D     96
     126     148                                                00010000D     97
     126       0               5       0                               0D     98
     126     153                                                00010000D     99
     126       0               6       0                               0D    100
     126     159                                                00010000D    101
     126       0               4       0                               0D    102
     126     163                                                00010000D    103
     126       0              21       0                               0D    104
     126     184                                                00010000D    105
     126       0              12       0                               0D    106
     126     196                                                00010000D    107
     126       0               4       0                               0D    108
     126     200                                                00010000D    109
     126       0               8       0                               0D    110
     126     208                                                00010000D    111
     126       0               9       0                               0D    112
     128     217                                                00010000D    113
     128       0    -143      18       0                               0D    114
     128     235                                                00010000D    115
     128       0    -143      12       0                               0D    116
     128     247                                                00010000D    117
     128       0    -143       9       0                               0D    118
     128     256                                                00010000D    119
     128       0    -143       9       0                               0D    120
     128     265                                                00010000D    121
     128       0    -143       8       0                               0D    122
     128     273                                                00010000D    123
     128       0    -143       9       0                               0D    124
     128     282                                                00010000D    125
     128       0    -143       9       0                               0D    126
     128     291                                                00010000D    127
     128       0    -143      11       0                               0D    128
     128     302                                                00010000D    129
     128       0    -143      21       0                               0D    130
     128     323                                                00010000D    131
     128       0    -143      17       0                               0D    132
     128     340                                                00010000D    133
     128       0    -143       9       0                               0D    134
     128     349                                                00010000D    135
     128       0    -143       9       0                               0D    136
     502     358                                                00010000D    137
     502                      20       1                               0D    138
     504     378                                                00010001D    139
     504                       8       1                               0D    140
     406     386                                                00000000D    141
     406                       1      15                               0D    142
     314     387                                                00000200D    143
     314                       2       0                               0D    144
186,3,1,0,0,1,141;                                                     1P      1
514,12,5,1,7,1,9,1,11,1,13,1,15,1,17,1,19,1,21,1,23,1,25,1,27,1;       3P      2
510,113,1,1,29;                                                        5P      3
510,115,1,1,31;                                                        7P      4
510,117,1,1,33;                                                        9P      5
510,119,1,1,35;                                                       11P      6
510,121,1,1,37;                                                       13P      7
510,123,1,1,39;                                                       15P      8
510,125,1,1,41;                                                       17P      9
510,127,1,1,43;                                                       19P     10
510,129,1,1,45;                                                       21P     11
510,131,1,1,47;                                                       23P     12
510,133,1,1,49;                                                       25P     13
510,135,1,1,51;                                                       27P     14
508,4,0,139,1,0,0,0,139,2,1,0,0,139,3,0,0,0,139,4,0,0;                29P     15
508,4,0,139,5,0,0,0,139,4,1,0,0,139,6,0,0,0,139,7,0,0;                31P     16
508,4,0,139,8,0,0,0,139,7,1,0,0,139,9,0,0,0,139,10,0,0;               33P     17
508,4,0,139,11,0,0,0,139,10,1,0,0,139,12,0,0,0,139,13,0,0;            35P     18
508,4,0,139,14,0,0,0,139,13,1,0,0,139,15,0,0,0,139,16,0,0;            37P     19
508,4,0,139,17,0,0,0,139,16,1,0,0,139,18,0,0,0,139,19,0,0;            39P     20
508,4,0,139,20,0,0,0,139,19,1,0,0,139,21,0,0,0,139,22,0,0;            41P     21
508,4,0,139,23,0,0,0,139,22,1,0,0,139,24,0,0,0,139,25,0,0;            43P     22
508,4,0,139,26,1,0,0,139,25,1,0,0,139,27,0,0,0,139,28,0,0;            45P     23
508,4,0,139,29,1,0,0,139,28,1,0,0,139,30,0,0,0,139,2,0,0;             47P     24
508,10,0,139,30,1,0,0,139,27,1,0,0,139,24,1,0,0,139,21,1,0,0,         49P     25
139,18,1,0,0,139,15,1,0,0,139,12,1,0,0,139,9,1,0,0,139,6,1,0,0,       49P     26
139,3,1,0;                                                            49P     27
508,10,0,139,29,0,0,0,139,1,1,0,0,139,5,1,0,0,139,8,1,0,0,139,        51P     28
11,1,0,0,139,14,1,0,0,139,17,1,0,0,139,20,1,0,0,139,23,1,0,0,         51P     29
139,26,0,0;                                                           51P     30
126,9,3,0,0,1,0,-0.0541543257788399,-0.0541543257788399,              53P     31
-0.0541543257788399,-0.0541543257788399,-0.0342038868876663,          53P     32
-0.0342038868876663,-0.0342038868876663,-0.0135394482155182,          53P     33
-0.0135394482155182,-0.0135394482155182,0.,0.,0.,0.,1.,1.,1.,1.,      53P     34
1.,1.,1.,1.,1.,1.,-4.13689674648142,-13.3999386084,                   53P     35
1.19101188659004,-4.14972360309565,-13.3999386084,                    53P     36
1.11910852494623,-4.16356717852359,-13.3999386084,                    53P     37
1.04977325334017,-4.17843727256854,-13.3999386084,                    53P     38
0.98303082470934,-4.19383954758198,-13.3999386084,                    53P     39
0.913899772966804,-4.21034312486311,-13.3999386084,                   53P     40
0.84755045727958,-4.22798003611415,-13.3999386084,                    53P     41
0.784063785263709,-4.23953583254074,-13.3999386084,                   53P     42
0.742466985961678,-4.25157861990127,-13.3999386084,                   53P     43
0.702100257893781,-4.26412182088121,-13.3999386084,                   53P     44
0.66299750489298,-0.0541543257788399,0.,0.,0.,0.;                     53P     45
126,1,1,0,0,1,0,0.00919873239841922,0.00919873239841922,0.1,0.1,      55P     46
1.,1.,-4.13689674648142,-13.3999386084,1.19101188659004,              55P     47
-4.13689674648142,-3.52887554571271,1.19101188659004,                 55P     48
0.00919873239841922,0.1,0.,0.,0.;                                     55P     49
126,6,5,0,0,0,0,-0.170797118834624,-0.170797118834624,                57P     50
-0.170797118834624,-0.170797118834624,-0.170797118834624,             57P     51
-0.170797118834624,-0.1,0.,0.,0.,0.,0.,0.,1.,1.,1.,1.,1.,1.,1.,       57P     52
-4.26412182088121,-3.52887554571271,0.662997504892977,                57P     53
-4.25164434144615,-3.52887554571271,0.701895374519893,                57P     54
-4.22253861578072,-3.52887554571271,0.798251805556427,                57P     55
-4.19579619259074,-3.52887554571271,0.900577609306122,                57P     56
-4.17133663309209,-3.52887554571271,1.00866960860984,                 57P     57
-4.14912801918309,-3.52887554571271,1.12244718279066,                 57P     58
-4.13689674648142,-3.52887554571271,1.19101188659004,                 57P     59
-0.170797118834624,0.,0.,0.,0.;                                       57P     60
126,1,1,0,0,1,0,0.00919873239841922,0.00919873239841922,0.1,0.1,      59P     61
1.,1.,-4.2641218208812,-13.3999386084,0.662997504892978,              59P     62
-4.2641218208812,-3.52887554571271,0.662997504892976,                 59P     63
0.00919873239841922,0.1,0.,0.,0.;                                     59P     64
126,2,2,0,0,0,0,0.246463435635978,0.246463435635978,                  61P     65
0.246463435635978,0.596503837095782,0.596503837095782,                61P     66
0.596503837095782,1.,0.984723021592542,1.,-4.2641218208812,           61P     67
-13.3999386084,0.662997504892978,-4.40162336579769,                   61P     68
-13.3999386084,0.297332639691321,-4.65618621823597,                   61P     69
-13.3999386084,0.000996306016465554,0.246463435635978,                61P     70
0.596503837095782,0.,0.,0.;                                           61P     71
126,2,2,0,0,0,0,-0.596503837095782,-0.596503837095782,                63P     72
-0.596503837095782,-0.246463435635978,-0.246463435635978,             63P     73
-0.246463435635978,1.,0.984723021592542,1.,-4.65618621823597,         63P     74
-3.52887554571271,0.000996306016463611,-4.40162336579769,             63P     75
-3.52887554571271,0.29733263969132,-4.2641218208812,                  63P     76
-3.52887554571271,0.662997504892976,-0.596503837095782,               63P     77
-0.246463435635978,0.,0.,0.;                                          63P     78
126,1,1,0,0,1,0,0.00919873239841922,0.00919873239841922,0.1,0.1,      65P     79
1.,1.,-4.65618621823597,-13.3999386084,0.000996306016465613,          65P     80
-4.65618621823597,-3.52887554571271,0.000996306016463422,             65P     81
0.00919873239841922,0.1,0.,0.,0.;                                     65P     82
126,1,1,0,0,1,0,0.0210838020099186,0.0210838020099186,                67P     83
0.0300838024373957,0.0300838024373957,1.,1.,-4.65618621823597,        67P     84
-13.3999386084,0.000996268049716234,-5.63458194034913,                67P     85
-13.3999386084,0.000996268049716403,0.0210838020099186,               67P     86
0.0300838024373957,0.,0.,0.;                                          67P     87
126,1,1,0,0,1,0,-0.0300838024373956,-0.0300838024373956,              69P     88
-0.0210838024555649,-0.0210838024555649,1.,1.,-5.63458194034912,      69P     89
-3.52887554571271,0.000996268049714187,-4.65618626668246,             69P     90
-3.52887554571271,0.000996268049714018,-0.0300838024373956,           69P     91
-0.0210838024555649,0.,0.,0.;                                         69P     92
126,1,1,0,0,1,0,0.00919873239841922,0.00919873239841922,0.1,0.1,      71P     93
1.,1.,-5.63458194034913,-13.3999386084,0.000996268049716447,          71P     94
-5.63458194034913,-3.52887554571271,0.000996268049714255,             71P     95
0.00919873239841922,0.1,0.,0.,0.;                                     71P     96
126,1,1,0,0,1,0,5.10632225304518D-19,5.10632225304518D-19,            73P     97
0.0049999998882413,0.0049999998882413,1.,1.,-5.63458194034913,        73P     98
-13.3999386084,0.000996268049716336,-5.63458194034913,                73P     99
-13.3999386084,-0.542556872935289,5.10632225304518D-19,               73P    100
0.0049999998882413,0.,0.,0.;                                          73P    101
126,1,1,0,0,1,0,-0.0049999998882413,-0.0049999998882413,0.,0.,        75P    102
1.,1.,-5.63458194034913,-3.52887554571271,-0.542556872935291,         75P    103
-5.63458194034913,-3.52887554571271,0.000996268049714244,             75P    104
-0.0049999998882413,0.,0.,0.,0.;                                      75P    105
126,1,1,0,0,1,0,0.00919873239841922,0.00919873239841922,0.1,0.1,      77P    106
1.,1.,-5.63458194034913,-13.3999386084,-0.542556872935289,            77P    107
-5.63458194034913,-3.52887554571271,-0.542556872935291,               77P    108
0.00919873239841922,0.1,0.,0.,0.;                                     77P    109
126,1,1,0,0,1,0,-0.0300838024373956,-0.0300838024373956,              79P    110
0.0249999994412065,0.0249999994412065,1.,1.,-5.63458194034912,        79P    111
-13.3999386084,-0.542556872935289,0.353612899199436,                  79P    112
-13.3999386084,-0.542556872935289,-0.0300838024373956,                79P    113
0.0249999994412065,0.,0.,0.;                                          79P    114
126,1,1,0,0,1,0,-0.0249999994412065,-0.0249999994412065,              81P    115
0.0300838024373956,0.0300838024373956,1.,1.,0.353612899199436,        81P    116
-3.52887554571271,-0.542556872935291,-5.63458194034912,               81P    117
-3.52887554571271,-0.542556872935291,-0.0249999994412065,             81P    118
0.0300838024373956,0.,0.,0.;                                          81P    119
126,1,1,0,0,1,0,0.00919873239841922,0.00919873239841922,0.1,0.1,      83P    120
1.,1.,0.353612899199437,-13.3999386084,-0.542556872935289,            83P    121
0.353612899199437,-3.52887554571271,-0.542556872935291,               83P    122
0.00919873239841922,0.1,0.,0.,0.;                                     83P    123
126,1,1,0,0,1,0,0.,0.,0.00499999988824129,0.00499999988824129,        85P    124
1.,1.,0.353612899199437,-13.3999386084,-0.542556872935289,            85P    125
0.353612899199437,-13.3999386084,0.00099626804971574,0.,              85P    126
0.00499999988824129,0.,0.,0.;                                         85P    127
126,1,1,0,0,1,0,-0.00499999988824129,-0.00499999988824129,0.,0.,      87P    128
1.,1.,0.353612899199437,-3.52887554571271,0.000996268049713658,       87P    129
0.353612899199437,-3.52887554571271,-0.542556872935291,               87P    130
-0.00499999988824129,0.,0.,0.,0.;                                     87P    131
126,1,1,0,0,1,0,0.00919873239841922,0.00919873239841922,0.1,0.1,      89P    132
1.,1.,0.353612899199437,-13.3999386084,0.000996268049715893,          89P    133
0.353612899199437,-3.52887554571271,0.000996268049713701,             89P    134
0.00919873239841922,0.1,0.,0.,0.;                                     89P    135
126,1,1,0,0,1,0,0.,0.,0.00899999937973915,0.00899999937973915,        91P    136
1.,1.,0.353612899199437,-13.3999386084,0.000996268049715838,          91P    137
-0.624782709013472,-13.3999386084,0.000996268049715838,0.,            91P    138
0.00899999937973915,0.,0.,0.;                                         91P    139
126,1,1,0,0,1,0,-0.00899999937973915,-0.00899999937973915,0.,0.,      93P    140
1.,1.,-0.624782709013472,-3.52887554571271,0.000996268049713622,      93P    141
0.353612899199437,-3.52887554571271,0.000996268049713622,             93P    142
-0.00899999937973915,0.,0.,0.,0.;                                     93P    143
126,1,1,0,0,1,0,0.00919873239841922,0.00919873239841922,0.1,0.1,      95P    144
1.,1.,-0.624782709013473,-13.3999386084,0.000996268049716655,         95P    145
-0.624782709013473,-3.52887554571271,0.000996268049714463,            95P    146
0.00919873239841922,0.1,0.,0.,0.;                                     95P    147
126,2,2,0,0,0,0,0.,0.,0.,0.275335097031865,0.275335097031865,         97P    148
0.275335097031865,1.,0.990538779912729,1.,-0.624782709013473,         97P    149
-13.3999386084,0.000996268049716365,-0.799515547361297,               97P    150
-13.3999386084,0.134389068076801,-0.931401500478798,                  97P    151
-13.3999386084,0.310262031509047,0.,0.275335097031865,0.,0.,0.;       97P    152
126,2,2,0,0,0,0,-0.275335097031865,-0.275335097031865,                99P    153
-0.275335097031865,0.,0.,0.,1.,0.990538779912729,1.,                  99P    154
-0.931401500478798,-3.52887554571271,0.310262031509045,               99P    155
-0.799515547361297,-3.52887554571271,0.1343890680768,                 99P    156
-0.624782709013473,-3.52887554571271,0.000996268049714699,            99P    157
-0.275335097031865,0.,0.,0.,0.;                                       99P    158
126,1,1,0,0,1,0,0.00919873239841922,0.00919873239841922,0.1,0.1,     101P    159
1.,1.,-0.931401500478797,-13.3999386084,0.310262031509047,           101P    160
-0.931401500478797,-3.52887554571271,0.310262031509045,              101P    161
0.00919873239841922,0.1,0.,0.,0.;                                    101P    162
126,12,3,0,0,1,0,1.38777878078145D-17,1.38777878078145D-17,          103P    163
1.38777878078145D-17,1.38777878078145D-17,0.0167115416877942,        103P    164
0.0167115416877942,0.0167115416877942,0.0341148616754788,            103P    165
0.0341148616754788,0.0341148616754788,0.0525352157739043,            103P    166
0.0525352157739043,0.0525352157739043,0.0712755835126233,            103P    167
0.0712755835126233,0.0712755835126233,0.0712755835126233,1.,1.,      103P    168
1.,1.,1.,1.,1.,1.,1.,1.,1.,1.,1.,-1.2206095767648,                   103P    169
-13.3999386084,0.965067086972349,-1.20209710206181,                  103P    170
-13.3999386084,0.903738151884793,-1.18265549658276,                  103P    171
-13.3999386084,0.844715406861105,-1.16227490084402,                  103P    172
-13.3999386084,0.788023324067874,-1.14105064542777,                  103P    173
-13.3999386084,0.728984458830233,-1.11880806291747,                  103P    174
-13.3999386084,0.672473177315536,-1.09551445902723,                  103P    175
-13.3999386084,0.618570629819478,-1.07085959821962,                  103P    176
-13.3999386084,0.561518066723057,-1.04502708067224,                  103P    177
-13.3999386084,0.507388558531129,-1.01795573053605,                  103P    178
-13.3999386084,0.456333949460694,-0.990414074494862,                 103P    179
-13.3999386084,0.404392377457022,-0.961589473546281,                 103P    180
-13.3999386084,0.355635195502745,-0.931401500478799,                 103P    181
-13.3999386084,0.310262031509045,1.38777878078145D-17,               103P    182
0.0712755835126233,0.,0.,0.;                                         103P    183
126,7,5,0,0,0,0,0.,0.,0.,0.,0.,0.,0.1,0.2,0.281774372729292,         105P    184
0.281774372729292,0.281774372729292,0.281774372729292,               105P    185
0.281774372729292,0.281774372729292,1.,1.,1.,1.,1.,1.,1.,1.,         105P    186
-1.2206095767648,-3.52887554571271,0.965067086972347,                105P    187
-1.20379683658326,-3.52887554571271,0.909369106676316,               105P    188
-1.16889185776455,-3.52887554571271,0.801148981715894,               105P    189
-1.11611003515271,-3.52887554571271,0.657629088898027,               105P    190
-1.05816468986747,-3.52887554571271,0.526925545501136,               105P    191
-0.994726100150347,-3.52887554571271,0.409856751973095,              105P    192
-0.951393839454261,-3.52887554571271,0.340310941150095,              105P    193
-0.931401500478799,-3.52887554571271,0.310262031509043,0.,           105P    194
0.281774372729292,0.,0.,0.;                                          105P    195
126,1,1,0,0,1,0,0.00919873239841922,0.00919873239841922,0.1,0.1,     107P    196
1.,1.,-1.2206095767648,-13.3999386084,0.965067086972349,             107P    197
-1.2206095767648,-3.52887554571271,0.965067086972347,                107P    198
0.00919873239841922,0.1,0.,0.,0.;                                    107P    199
126,4,2,0,0,0,0,0.,0.,0.,1.53490738376961,1.53490738376961,          109P    200
3.06981476753923,3.06981476753923,3.06981476753923,1.,               109P    201
0.719680915150795,1.,0.719680915150795,1.,-4.13689674648142,         109P    202
-13.3999386084,1.19101188659004,-3.97740003482842,                   109P    203
-13.3999386084,2.59382814057354,-2.56976416925996,                   109P    204
-13.3999386084,2.48476892072605,-1.1621283036915,-13.3999386084,     109P    205
2.37570970087856,-1.2206095767648,-13.3999386084,                    109P    206
0.96506708697235,0.,3.06981476753923,0.,0.,0.;                       109P    207
126,4,2,0,0,0,0,0.,0.,0.,1.53490738376961,1.53490738376961,          111P    208
3.06981476753923,3.06981476753923,3.06981476753923,1.,               111P    209
0.719680915150794,1.,0.719680915150795,1.,-4.13689674648142,         111P    210
-3.52887554571271,1.19101188659004,-3.97740003482842,                111P    211
-3.52887554571271,2.59382814057354,-2.56976416925996,                111P    212
-3.52887554571271,2.48476892072605,-1.1621283036915,                 111P    213
-3.52887554571271,2.37570970087855,-1.2206095767648,                 111P    214
-3.52887554571271,0.965067086972347,0.,3.06981476753923,0.,0.,       111P    215
0.;                                                                  111P    216
128,6,1,5,1,0,0,0,0,0,-0.170797118834624,-0.170797118834624,         113P    217
-0.170797118834624,-0.170797118834624,-0.170797118834624,            113P    218
-0.170797118834624,-0.1,0.,0.,0.,0.,0.,0.,0.,0.,0.1,0.1,1.,1.,       113P    219
1.,1.,1.,1.,1.,1.,1.,1.,1.,1.,1.,1.,-4.26412182088121,               113P    220
-14.3999386084,0.66299750489298,-4.25164434144615,                   113P    221
-14.3999386084,0.701895374519896,-4.22253861578072,                  113P    222
-14.3999386084,0.798251805556429,-4.19579619259074,                  113P    223
-14.3999386084,0.900577609306125,-4.17133663309209,                  113P    224
-14.3999386084,1.00866960860984,-4.14912801918309,                   113P    225
-14.3999386084,1.12244718279066,-4.13689674648142,                   113P    226
-14.3999386084,1.19101188659004,-4.26412182088121,                   113P    227
-3.5288755457127,0.662997504892977,-4.25164434144615,                113P    228
-3.52887554571271,0.701895374519893,-4.22253861578072,               113P    229
-3.52887554571271,0.798251805556427,-4.19579619259074,               113P    230
-3.52887554571271,0.900577609306123,-4.17133663309209,               113P    231
-3.52887554571271,1.00866960860984,-4.14912801918309,                113P    232
-3.5288755457127,1.12244718279066,-4.13689674648142,                 113P    233
-3.5288755457127,1.19101188659004,-0.170797118834624,0.,0.,0.1;      113P    234
128,1,2,1,2,0,0,0,0,0,0.452639522504019,0.452639522504019,           115P    235
4.92067279380585,4.92067279380585,0.246463435635978,                 115P    236
0.246463435635978,0.246463435635978,0.596503837095783,               115P    237
0.596503837095783,0.596503837095783,1.,1.,0.984723021592554,         115P    238
0.984723021592554,1.,1.,-4.2641218208812,-13.3999386084,             115P    239
0.662997504892978,-4.2641218208812,-3.52887554571271,                115P    240
0.662997504892976,-4.40162336579769,-13.3999386084,                  115P    241
0.297332639691321,-4.40162336579769,-3.52887554571271,               115P    242
0.297332639691319,-4.65618621823597,-13.3999386084,                  115P    243
0.000996306016465276,-4.65618621823597,-3.52887554571271,            115P    244
0.00099630601646316,0.452639522504019,4.92067279380585,              115P    245
0.246463435635978,0.596503837095783;                                 115P    246
128,1,1,1,1,0,0,1,0,0,-0.000900000042747705,                         117P    247
-0.000900000042747705,0.00990000047022475,0.00990000047022475,       117P    248
0.00819873239841922,0.00819873239841922,0.101,0.101,1.,1.,1.,1.,     117P    249
-5.73242151256044,-13.5086492390269,0.000996268049716488,            117P    250
-4.55834664602465,-13.5086492390269,0.000996268049716285,            117P    251
-5.73242151256044,-3.42016491508583,0.000996268049714248,            117P    252
-4.55834664602465,-3.42016491508583,0.000996268049714045,            117P    253
-0.000900000042747705,0.00990000047022475,0.00819873239841922,       117P    254
0.101;                                                               117P    255
128,1,1,1,1,0,0,1,0,0,-0.000499999988824131,                         119P    256
-0.000499999988824131,0.00549999987706543,0.00549999987706543,       119P    257
0.00819873239841922,0.00819873239841922,0.101,0.101,1.,1.,1.,1.,     119P    258
-5.63458194034913,-13.5086492390269,-0.59691218703379,               119P    259
-5.63458194034913,-13.5086492390269,0.055351582148217,               119P    260
-5.63458194034913,-3.42016491508583,-0.596912187033792,              119P    261
-5.63458194034913,-3.42016491508583,0.0553515821482148,              119P    262
-0.000499999988824131,0.00549999987706543,0.00819873239841922,       119P    263
0.101;                                                               119P    264
128,1,1,1,1,0,0,1,0,0,-0.001,-0.001,0.0560838018786021,              121P    265
0.0560838018786021,0.00819873239841922,0.00819873239841922,          121P    266
0.101,0.101,1.,1.,1.,1.,0.46232352982631,-13.5086492390269,          121P    267
-0.542556872935289,-5.743292570976,-13.5086492390269,                121P    268
-0.542556872935289,0.46232352982631,-3.42016491508583,               121P    269
-0.542556872935291,-5.743292570976,-3.42016491508583,                121P    270
-0.542556872935291,-0.001,0.0560838018786021,                        121P    271
0.00819873239841922,0.101;                                           121P    272
128,1,1,1,1,0,0,1,0,0,-0.000499999988824129,                         123P    273
-0.000499999988824129,0.00549999987706542,0.00549999987706542,       123P    274
0.00819873239841922,0.00819873239841922,0.101,0.101,1.,1.,1.,1.,     123P    275
0.353612899199437,-13.5086492390269,0.0553515821482164,              123P    276
0.353612899199437,-13.5086492390269,-0.59691218703379,               123P    277
0.353612899199437,-3.42016491508583,0.0553515821482142,              123P    278
0.353612899199437,-3.42016491508583,-0.596912187033792,              123P    279
-0.000499999988824129,0.00549999987706542,0.00819873239841922,       123P    280
0.101;                                                               123P    281
128,1,1,1,1,0,0,1,0,0,-0.000899999937973927,                         125P    282
-0.000899999937973927,0.00989999931771307,0.00989999931771307,       125P    283
0.00819873239841922,0.00819873239841922,0.101,0.101,1.,1.,1.,1.,     125P    284
-0.722622269834764,-13.5086492390269,0.000996268049715917,           125P    285
0.451452460020727,-13.5086492390269,0.000996268049715917,            125P    286
-0.722622269834764,-3.42016491508583,0.000996268049713677,           125P    287
0.451452460020727,-3.42016491508583,0.000996268049713677,            125P    288
-0.000899999937973927,0.00989999931771307,0.00819873239841922,       125P    289
0.101;                                                               125P    290
128,1,2,1,2,0,0,0,0,0,0.630232163793665,0.630232163793665,           127P    291
6.85129359673479,6.85129359673479,0.,0.,0.,0.275335097031865,        127P    292
0.275335097031865,0.275335097031865,1.,1.,0.990538779912726,         127P    293
0.990538779912726,1.,1.,-0.624782709013473,-13.3999386084,           127P    294
0.000996268049716365,-0.624782709013473,-3.52887554571271,           127P    295
0.000996268049714144,-0.799515547361296,-13.3999386084,              127P    296
0.134389068076801,-0.799515547361296,-3.52887554571271,              127P    297
0.134389068076799,-0.931401500478798,-13.3999386084,                 127P    298
0.310262031509047,-0.931401500478798,-3.52887554571271,              127P    299
0.310262031509045,0.630232163793665,6.85129359673479,0.,             127P    300
0.275335097031865;                                                   127P    301
128,7,1,5,1,0,0,0,0,0,0.,0.,0.,0.,0.,0.,0.1,0.2,                     129P    302
0.281774372729292,0.281774372729292,0.281774372729292,               129P    303
0.281774372729292,0.281774372729292,0.281774372729292,0.,0.,0.1,     129P    304
0.1,1.,1.,1.,1.,1.,1.,1.,1.,1.,1.,1.,1.,1.,1.,1.,1.,                 129P    305
-1.2206095767648,-14.3999386084,0.965067086972349,                   129P    306
-1.20379683658326,-14.3999386084,0.909369106676319,                  129P    307
-1.16889185776455,-14.3999386084,0.801148981715896,                  129P    308
-1.11611003515271,-14.3999386084,0.65762908889803,                   129P    309
-1.05816468986747,-14.3999386084,0.526925545501139,                  129P    310
-0.994726100150347,-14.3999386084,0.409856751973098,                 129P    311
-0.951393839454261,-14.3999386084,0.340310941150098,                 129P    312
-0.931401500478799,-14.3999386084,0.310262031509046,                 129P    313
-1.2206095767648,-3.5288755457127,0.965067086972347,                 129P    314
-1.20379683658326,-3.5288755457127,0.909369106676316,                129P    315
-1.16889185776455,-3.5288755457127,0.801148981715894,                129P    316
-1.11611003515271,-3.5288755457127,0.657629088898027,                129P    317
-1.05816468986747,-3.5288755457127,0.526925545501136,                129P    318
-0.994726100150347,-3.5288755457127,0.409856751973096,               129P    319
-0.951393839454261,-3.5288755457127,0.340310941150095,               129P    320
-0.931401500478799,-3.5288755457127,0.310262031509043,0.,            129P    321
0.281774372729292,0.,0.1;                                            129P    322
128,1,4,1,2,0,0,0,0,0,0.683314117689197,0.683314117689197,           131P    323
7.42835086502379,7.42835086502379,-1.42243324970619D-16,             131P    324
-1.42243324970619D-16,-1.42243324970619D-16,1.53490738376961,        131P    325
1.53490738376961,3.06981476753923,3.06981476753923,                  131P    326
3.06981476753923,1.,1.,0.719680915150794,0.719680915150794,1.,       131P    327
1.,0.719680915150794,0.719680915150794,1.,1.,-4.13689674648142,      131P    328
-3.52887554571271,1.19101188659004,-4.13689674648142,                131P    329
-13.3999386084,1.19101188659004,-3.97740003482842,                   131P    330
-3.52887554571271,2.59382814057354,-3.97740003482842,                131P    331
-13.3999386084,2.59382814057354,-2.56976416925996,                   131P    332
-3.52887554571271,2.48476892072605,-2.56976416925996,                131P    333
-13.3999386084,2.48476892072605,-1.1621283036915,                    131P    334
-3.52887554571271,2.37570970087855,-1.1621283036915,                 131P    335
-13.3999386084,2.37570970087856,-1.2206095767648,                    131P    336
-3.52887554571271,0.965067086972347,-1.2206095767648,                131P    337
-13.3999386084,0.965067086972349,0.683314117689197,                  131P    338
7.42835086502379,-1.42243324970619D-16,3.06981476753923;             131P    339
128,1,1,1,1,0,0,1,0,0,-0.0285419009393011,-0.0285419009393011,       133P    340
0.028541900939301,0.028541900939301,-0.0159068751274357,             133P    341
-0.0159068751274357,0.0149438913102445,0.0149438913102445,1.,1.,     133P    342
1.,1.,-5.743292570976,-3.52887554571271,2.70253877120041,            133P    343
0.46232352982631,-3.52887554571271,2.70253877120041,                 133P    344
-5.743292570976,-3.52887554571271,-0.651267503562164,                133P    345
0.46232352982631,-3.52887554571271,-0.651267503562164,               133P    346
-0.0285419009393011,0.028541900939301,-0.0159068751274357,           133P    347
0.0149438913102445;                                                  133P    348
128,1,1,1,1,0,0,1,0,0,-0.0285419009393011,-0.0285419009393011,       135P    349
0.028541900939301,0.028541900939301,-0.0159068751274357,             135P    350
-0.0159068751274357,0.0149438913102445,0.0149438913102445,1.,1.,     135P    351
1.,1.,0.46232352982631,-13.3999386084,2.70253877120041,              135P    352
-5.743292570976,-13.3999386084,2.70253877120041,                     135P    353
0.46232352982631,-13.3999386084,-0.651267503562162,                  135P    354
-5.743292570976,-13.3999386084,-0.651267503562162,                   135P    355
-0.0285419009393011,0.028541900939301,-0.0159068751274357,           135P    356
0.0149438913102445;                                                  135P    357
502,20,-4.13689674648142,-13.3999386084,1.19101188659004,            137P    358
-4.2641218208812,-13.3999386084,0.662997504892978,                   137P    359
-4.13689674648142,-3.52887554571271,1.19101188659004,                137P    360
-4.2641218208812,-3.52887554571271,0.662997504892976,                137P    361
-4.65618621823597,-13.3999386084,0.000996306016465558,               137P    362
-4.65618621823597,-3.52887554571271,0.000996306016463342,            137P    363
-5.63458194034913,-13.3999386084,0.000996268049716392,               137P    364
-5.63458194034913,-3.52887554571271,0.000996268049714244,            137P    365
-5.63458194034913,-13.3999386084,-0.542556872935289,                 137P    366
-5.63458194034913,-3.52887554571271,-0.542556872935291,              137P    367
0.353612899199437,-13.3999386084,-0.542556872935289,                 137P    368
0.353612899199437,-3.52887554571271,-0.542556872935291,              137P    369
0.353612899199437,-13.3999386084,0.000996268049715838,               137P    370
0.353612899199437,-3.52887554571271,0.000996268049713622,            137P    371
-0.624782709013473,-13.3999386084,0.000996268049716599,              137P    372
-0.624782709013473,-3.52887554571271,0.000996268049714383,           137P    373
-0.931401500478797,-13.3999386084,0.310262031509047,                 137P    374
-0.931401500478797,-3.52887554571271,0.310262031509045,              137P    375
-1.2206095767648,-13.3999386084,0.965067086972349,                   137P    376
-1.2206095767648,-3.52887554571271,0.965067086972347;                137P    377
504,30,53,137,1,137,2,55,137,1,137,3,57,137,4,137,3,59,137,2,        139P    378
137,4,61,137,2,137,5,63,137,6,137,4,65,137,5,137,6,67,137,5,137,     139P    379
7,69,137,8,137,6,71,137,7,137,8,73,137,7,137,9,75,137,10,137,8,      139P    380
77,137,9,137,10,79,137,9,137,11,81,137,12,137,10,83,137,11,137,      139P    381
12,85,137,11,137,13,87,137,14,137,12,89,137,13,137,14,91,137,13,     139P    382
137,15,93,137,16,137,14,95,137,15,137,16,97,137,15,137,17,99,        139P    383
137,18,137,16,101,137,17,137,18,103,137,19,137,17,105,137,20,        139P    384
137,18,107,137,19,137,20,109,137,1,137,19,111,137,3,137,20;          139P    385
406,1,5HBody1;                                                       141P    386
314,62.7450980392157,62.7450980392157,62.7450980392157,13HSteel      143P    387
- Satin;                                                             143P    388
S      1G      3D    144P    388                                        T      1
