                                                                        S      1
,,14HsmoothRODmount,14HsmoothRODmount,7Hunknown,7Hunknown,32,38,7,99,15,G      1
,1.,2,2HMM,1,0.08,15H20250630.231005,0.01,10000.,7Hunknown,7Hunknown,11,G      2
0,15H20250629.171405;                                                   G      3
     186       1                                                00000000D      1
     186            -223       1       0                               0D      2
     514       2                                                00010000D      3
     514                       2       1                               0D      4
     510       4                                                00010000D      5
     510            -223       1       1                               0D      6
     510       5                                                00010000D      7
     510            -223       1       1                               0D      8
     510       6                                                00010000D      9
     510            -223       1       1                               0D     10
     510       7                                                00010000D     11
     510            -223       1       1                               0D     12
     510       8                                                00010000D     13
     510            -223       1       1                               0D     14
     510       9                                                00010000D     15
     510            -223       1       1                               0D     16
     510      10                                                00010000D     17
     510            -223       1       1                               0D     18
     510      11                                                00010000D     19
     510            -223       1       1                               0D     20
     510      12                                                00010000D     21
     510            -223       1       1                               0D     22
     510      13                                                00010000D     23
     510            -223       1       1                               0D     24
     510      14                                                00010000D     25
     510            -223       1       1                               0D     26
     510      15                                                00010000D     27
     510            -223       1       1                               0D     28
     510      16                                                00010000D     29
     510            -223       1       1                               0D     30
     510      17                                                00010000D     31
     510            -223       1       1                               0D     32
     510      18                                                00010000D     33
     510            -223       1       1                               0D     34
     510      19                                                00010000D     35
     510            -223       1       1                               0D     36
     510      20                                                00010000D     37
     510            -223       1       1                               0D     38
     508      21                                                00010000D     39
     508                       2       1                               0D     40
     508      23                                                00010000D     41
     508                       2       1                               0D     42
     508      25                                                00010000D     43
     508                       2       1                               0D     44
     508      27                                                00010000D     45
     508                       1       1                               0D     46
     508      28                                                00010000D     47
     508                       1       1                               0D     48
     508      29                                                00010000D     49
     508                       1       1                               0D     50
     508      30                                                00010000D     51
     508                       3       1                               0D     52
     508      33                                                00010000D     53
     508                       1       1                               0D     54
     508      34                                                00010000D     55
     508                       1       1                               0D     56
     508      35                                                00010000D     57
     508                       1       1                               0D     58
     508      36                                                00010000D     59
     508                       1       1                               0D     60
     508      37                                                00010000D     61
     508                       1       1                               0D     62
     508      38                                                00010000D     63
     508                       1       1                               0D     64
     508      39                                                00010000D     65
     508                       1       1                               0D     66
     508      40                                                00010000D     67
     508                       1       1                               0D     68
     508      41                                                00010000D     69
     508                       1       1                               0D     70
     508      42                                                00010000D     71
     508                       1       1                               0D     72
     508      43                                                00010000D     73
     508                       1       1                               0D     74
     508      44                                                00010000D     75
     508                       1       1                               0D     76
     508      45                                                00010000D     77
     508                       1       1                               0D     78
     508      46                                                00010000D     79
     508                       1       1                               0D     80
     508      47                                                00010000D     81
     508                       3       1                               0D     82
     508      50                                                00010000D     83
     508                       1       1                               0D     84
     126      51                                                00010000D     85
     126       0               7       0                               0D     86
     126      58                                                00010000D     87
     126       0               8       0                               0D     88
     126      66                                                00010000D     89
     126       0               3       0                               0D     90
     126      69                                                00010000D     91
     126       0              12       0                               0D     92
     126      81                                                00010000D     93
     126       0               6       0                               0D     94
     126      87                                                00010000D     95
     126       0               7       0                               0D     96
     126      94                                                00010000D     97
     126       0               2       0                               0D     98
     126      96                                                00010000D     99
     126       0              10       0                               0D    100
     126     106                                                00010000D    101
     126       0               7       0                               0D    102
     126     113                                                00010000D    103
     126       0               8       0                               0D    104
     126     121                                                00010000D    105
     126       0               4       0                               0D    106
     126     125                                                00010000D    107
     126       0               7       0                               0D    108
     126     132                                                00010000D    109
     126       0               8       0                               0D    110
     126     140                                                00010000D    111
     126       0               3       0                               0D    112
     126     143                                                00010000D    113
     126       0               2       0                               0D    114
     126     145                                                00010000D    115
     126       0               3       0                               0D    116
     126     148                                                00010000D    117
     126       0               2       0                               0D    118
     126     150                                                00010000D    119
     126       0               3       0                               0D    120
     126     153                                                00010000D    121
     126       0               2       0                               0D    122
     126     155                                                00010000D    123
     126       0               3       0                               0D    124
     126     158                                                00010000D    125
     126       0               2       0                               0D    126
     126     160                                                00010000D    127
     126       0               2       0                               0D    128
     126     162                                                00010000D    129
     126       0               2       0                               0D    130
     126     164                                                00010000D    131
     126       0               3       0                               0D    132
     126     167                                                00010000D    133
     126       0               3       0                               0D    134
     126     170                                                00010000D    135
     126       0               2       0                               0D    136
     126     172                                                00010000D    137
     126       0               4       0                               0D    138
     126     176                                                00010000D    139
     126       0               2       0                               0D    140
     126     178                                                00010000D    141
     126       0               4       0                               0D    142
     126     182                                                00010000D    143
     126       0               2       0                               0D    144
     126     184                                                00010000D    145
     126       0               3       0                               0D    146
     126     187                                                00010000D    147
     126       0               2       0                               0D    148
     126     189                                                00010000D    149
     126       0               2       0                               0D    150
     126     191                                                00010000D    151
     126       0               2       0                               0D    152
     126     193                                                00010000D    153
     126       0               2       0                               0D    154
     126     195                                                00010000D    155
     126       0               4       0                               0D    156
     126     199                                                00010000D    157
     126       0               2       0                               0D    158
     126     201                                                00010000D    159
     126       0               2       0                               0D    160
     126     203                                                00010000D    161
     126       0               2       0                               0D    162
     126     205                                                00010000D    163
     126       0               2       0                               0D    164
     126     207                                                00010000D    165
     126       0               2       0                               0D    166
     126     209                                                00010000D    167
     126       0               4       0                               0D    168
     126     213                                                00010000D    169
     126       0               2       0                               0D    170
     126     215                                                00010000D    171
     126       0               2       0                               0D    172
     126     217                                                00010000D    173
     126       0               2       0                               0D    174
     126     219                                                00010000D    175
     126       0               3       0                               0D    176
     126     222                                                00010000D    177
     126       0               2       0                               0D    178
     126     224                                                00010000D    179
     126       0               2       0                               0D    180
     126     226                                                00010000D    181
     126       0               2       0                               0D    182
     128     228                                                00010000D    183
     128       0    -223      20       0                               0D    184
     128     248                                                00010000D    185
     128       0    -223      15       0                               0D    186
     128     263                                                00010000D    187
     128       0    -223      21       0                               0D    188
     128     284                                                00010000D    189
     128       0    -223       7       0                               0D    190
     128     291                                                00010000D    191
     128       0    -223       5       0                               0D    192
     128     296                                                00010000D    193
     128       0    -223       4       0                               0D    194
     128     300                                                00010000D    195
     128       0    -223       7       0                               0D    196
     128     307                                                00010000D    197
     128       0    -223       3       0                               0D    198
     128     310                                                00010000D    199
     128       0    -223       7       0                               0D    200
     128     317                                                00010000D    201
     128       0    -223       4       0                               0D    202
     128     321                                                00010000D    203
     128       0    -223       7       0                               0D    204
     128     328                                                00010000D    205
     128       0    -223       4       0                               0D    206
     128     332                                                00010000D    207
     128       0    -223       4       0                               0D    208
     128     336                                                00010000D    209
     128       0    -223       4       0                               0D    210
     128     340                                                00010000D    211
     128       0    -223       4       0                               0D    212
     128     344                                                00010000D    213
     128       0    -223       3       0                               0D    214
     128     347                                                00010000D    215
     128       0    -223       4       0                               0D    216
     502     351                                                00010000D    217
     502                      13       1                               0D    218
     504     364                                                00010001D    219
     504                      14       1                               0D    220
     406     378                                                00000000D    221
     406                       1      15                               0D    222
     314     379                                                00000200D    223
     314                       2       0                               0D    224
     314     381                                                00000200D    225
     314                       2       0                               0D    226
186,3,1,0,0,1,221;                                                     1P      1
514,17,5,1,7,1,9,1,11,1,13,1,15,1,17,1,19,1,21,1,23,1,25,1,27,1,       3P      2
29,1,31,1,33,1,35,1,37,1;                                              3P      3
510,183,1,1,39;                                                        5P      4
510,185,1,1,41;                                                        7P      5
510,187,1,1,43;                                                        9P      6
510,189,1,1,45;                                                       11P      7
510,191,2,1,47,49;                                                    13P      8
510,193,2,1,51,53;                                                    15P      9
510,195,1,1,55;                                                       17P     10
510,197,1,1,57;                                                       19P     11
510,199,1,1,59;                                                       21P     12
510,201,1,1,61;                                                       23P     13
510,203,1,1,63;                                                       25P     14
510,205,1,1,65;                                                       27P     15
510,207,1,1,67;                                                       29P     16
510,209,2,1,69,71;                                                    31P     17
510,211,3,1,73,75,77;                                                 33P     18
510,213,1,1,79;                                                       35P     19
510,215,2,1,81,83;                                                    37P     20
508,5,0,219,1,0,0,0,219,2,0,0,0,219,3,1,0,0,219,4,0,0,0,219,3,0,      39P     21
0;                                                                    39P     22
508,5,0,219,5,0,0,0,219,6,0,0,0,219,7,1,0,0,219,8,0,0,0,219,7,0,      41P     23
0;                                                                    41P     24
508,6,0,219,9,0,0,0,219,10,0,0,0,219,11,1,0,0,219,12,0,0,0,219,       43P     25
13,0,0,0,219,11,0,0;                                                  43P     26
508,4,0,219,14,1,0,0,219,15,1,0,0,219,16,1,0,0,219,17,1,0;            45P     27
508,4,0,219,15,0,0,0,219,18,1,0,0,219,19,1,0,0,219,20,1,0;            47P     28
508,2,0,219,5,1,0,0,219,6,1,0;                                        49P     29
508,12,0,219,14,0,0,0,219,21,1,0,0,219,22,0,0,0,219,23,0,0,0,         51P     30
219,24,0,0,0,219,25,0,0,0,219,26,0,0,0,219,27,0,0,0,219,28,0,0,       51P     31
0,219,29,0,0,0,219,30,1,0,0,219,18,0,0;                               51P     32
508,2,0,219,9,1,0,0,219,10,1,0;                                       53P     33
508,4,0,219,31,1,0,0,219,32,1,0,0,219,24,1,0,0,219,33,1,0;            55P     34
508,4,0,219,33,0,0,0,219,23,1,0,0,219,34,0,0,0,219,35,0,0;            57P     35
508,4,0,219,36,1,0,0,219,37,1,0,0,219,27,1,0,0,219,38,1,0;            59P     36
508,4,0,219,38,0,0,0,219,26,1,0,0,219,39,0,0,0,219,40,0,0;            61P     37
508,4,0,219,29,1,0,0,219,41,1,0,0,219,42,1,0,0,219,43,1,0;            63P     38
508,4,0,219,43,0,0,0,219,44,1,0,0,219,19,0,0,0,219,30,0,0;            65P     39
508,4,0,219,37,0,0,0,219,45,1,0,0,219,41,0,0,0,219,28,1,0;            67P     40
508,4,0,219,32,0,0,0,219,46,1,0,0,219,39,1,0,0,219,25,1,0;            69P     41
508,2,0,219,1,1,0,0,219,2,1,0;                                        71P     42
508,4,0,219,47,1,0,0,219,34,1,0,0,219,22,1,0,0,219,48,1,0;            73P     43
508,1,0,219,4,1,0;                                                    75P     44
508,1,0,219,8,1,0;                                                    77P     45
508,4,0,219,17,0,0,0,219,49,1,0,0,219,48,0,0,0,219,21,0,0;            79P     46
508,12,0,219,16,0,0,0,219,20,0,0,0,219,44,0,0,0,219,42,0,0,0,         81P     47
219,45,0,0,0,219,36,0,0,0,219,40,1,0,0,219,46,0,0,0,219,31,0,0,       81P     48
0,219,35,1,0,0,219,47,0,0,0,219,49,0,0;                               81P     49
508,2,0,219,12,1,0,0,219,13,1,0;                                      83P     50
126,4,2,0,0,0,0,0.,0.,0.,1.5707963267949,1.5707963267949,             85P     51
3.14159265358979,3.14159265358979,3.14159265358979,1.,                85P     52
0.707106781186548,1.,0.707106781186548,1.,28.1812153340532,           85P     53
7.52733411536869,5.,28.1812153340532,5.02733411536869,5.,             85P     54
25.6812153340532,5.02733411536869,5.,23.1812153340532,                85P     55
5.02733411536869,5.,23.1812153340532,7.52733411536869,5.,0.,          85P     56
3.14159265358979,0.,0.,0.;                                            85P     57
126,4,2,0,0,0,0,3.14159265358979,3.14159265358979,                    87P     58
3.14159265358979,4.71238898038469,4.71238898038469,                   87P     59
6.28318530717959,6.28318530717959,6.28318530717959,1.,                87P     60
0.707106781186548,1.,0.707106781186549,1.,23.1812153340532,           87P     61
7.52733411536869,5.,23.1812153340532,10.0273341153687,5.,             87P     62
25.6812153340532,10.0273341153687,5.,28.1812153340532,                87P     63
10.0273341153687,5.,28.1812153340532,7.52733411536869,5.,             87P     64
3.14159265358979,6.28318530717959,0.,0.,0.;                           87P     65
126,1,1,0,0,1,0,-3.,-3.,-1.,-1.,1.,1.,23.1812153340532,               89P     66
7.52733411536869,5.,23.1812153340532,7.52733411536869,0.,-3.,         89P     67
-1.,0.,0.,0.;                                                         89P     68
126,8,2,0,1,0,0,-3.14159265358979,-3.14159265358979,                  91P     69
-3.14159265358979,-1.5707963267949,-1.5707963267949,0.,0.,            91P     70
1.5707963267949,1.5707963267949,3.14159265358979,                     91P     71
3.14159265358979,3.14159265358979,1.,0.707106781186548,1.,            91P     72
0.707106781186548,1.,0.707106781186548,1.,0.707106781186548,1.,       91P     73
23.1812153340532,7.52733411536869,0.,23.1812153340532,                91P     74
5.02733411536869,0.,25.6812153340532,5.02733411536869,0.,             91P     75
28.1812153340532,5.02733411536869,0.,28.1812153340532,                91P     76
7.52733411536869,0.,28.1812153340532,10.0273341153687,0.,             91P     77
25.6812153340532,10.0273341153687,0.,23.1812153340532,                91P     78
10.0273341153687,0.,23.1812153340532,7.52733411536869,0.,             91P     79
-3.14159265358979,3.14159265358979,0.,0.,0.;                          91P     80
126,4,2,0,0,0,0,0.,0.,0.,1.5707963267949,1.5707963267949,             93P     81
3.14159265358979,3.14159265358979,3.14159265358979,1.,                93P     82
0.707106781186547,1.,0.707106781186547,1.,7.50000007450581,7.5,       93P     83
5.,7.50000007450581,5.,5.,5.00000007450581,5.,5.,                     93P     84
2.50000007450581,5.,5.,2.50000007450581,7.5,5.,0.,                    93P     85
3.14159265358979,0.,0.,0.;                                            93P     86
126,4,2,0,0,0,0,3.14159265358979,3.14159265358979,                    95P     87
3.14159265358979,4.71238898038469,4.71238898038469,                   95P     88
6.28318530717959,6.28318530717959,6.28318530717959,1.,                95P     89
0.707106781186547,1.,0.707106781186549,1.,2.50000007450581,7.5,       95P     90
5.,2.5000000745058,10.,5.,5.00000007450581,10.,5.,                    95P     91
7.5000000745058,10.,5.,7.50000007450581,7.5,5.,3.14159265358979,      95P     92
6.28318530717959,0.,0.,0.;                                            95P     93
126,1,1,0,0,1,0,-3.,-3.,-1.,-1.,1.,1.,2.50000007450581,7.5,5.,        97P     94
2.50000007450581,7.5,0.,-3.,-1.,0.,0.,0.;                             97P     95
126,8,2,0,1,0,0,-3.14159265358979,-3.14159265358979,                  99P     96
-3.14159265358979,-1.5707963267949,-1.5707963267949,0.,0.,            99P     97
1.5707963267949,1.5707963267949,3.14159265358979,                     99P     98
3.14159265358979,3.14159265358979,1.,0.707106781186547,1.,            99P     99
0.707106781186547,1.,0.707106781186547,1.,0.707106781186547,1.,       99P    100
2.50000007450581,7.5,0.,2.50000007450581,5.,0.,5.00000007450581,      99P    101
5.,0.,7.50000007450581,5.,0.,7.50000007450581,7.5,0.,                 99P    102
7.50000007450581,10.,0.,5.00000007450581,10.,0.,                      99P    103
2.50000007450581,10.,0.,2.50000007450581,7.5,0.,                      99P    104
-3.14159265358979,3.14159265358979,0.,0.,0.;                          99P    105
126,4,2,0,0,0,0,0.,0.,0.,1.5707963267949,1.5707963267949,            101P    106
3.14159265358979,3.14159265358979,3.14159265358979,1.,               101P    107
0.707106781186548,1.,0.707106781186548,1.,14.3447327613831,0.,       101P    108
4.17516005039215,10.0947327613831,0.,4.17516005039215,               101P    109
10.0947327613831,0.,8.42516005039215,10.0947327613831,0.,            101P    110
12.6751600503922,14.3447327613831,0.,12.6751600503922,0.,            101P    111
3.14159265358979,0.,0.,0.;                                           101P    112
126,4,2,0,0,0,0,3.14159265358979,3.14159265358979,                   103P    113
3.14159265358979,4.71238898038469,4.71238898038469,                  103P    114
6.28318530717959,6.28318530717959,6.28318530717959,1.,               103P    115
0.707106781186548,1.,0.707106781186548,1.,14.3447327613831,0.,       103P    116
12.6751600503922,18.5947327613831,0.,12.6751600503922,               103P    117
18.5947327613831,0.,8.42516005039215,18.5947327613831,0.,            103P    118
4.17516005039215,14.3447327613831,0.,4.17516005039215,               103P    119
3.14159265358979,6.28318530717959,0.,0.,0.;                          103P    120
126,1,1,0,0,1,0,-1.76470588235294,-1.76470588235294,                 105P    121
1.76470588235294,1.76470588235294,1.,1.,14.3447327613831,0.,         105P    122
12.6751600503922,14.3447327613831,15.,12.6751600503922,              105P    123
-1.76470588235294,1.76470588235294,0.,0.,0.;                         105P    124
126,4,2,0,0,0,0,0.,0.,0.,1.5707963267949,1.5707963267949,            107P    125
3.14159265358979,3.14159265358979,3.14159265358979,1.,               107P    126
0.707106781186546,1.,0.707106781186546,1.,14.3447327613831,15.,      107P    127
4.17516005039215,18.5947327613831,15.,4.17516005039215,              107P    128
18.5947327613831,15.,8.42516005039215,18.5947327613831,15.,          107P    129
12.6751600503922,14.3447327613831,15.,12.6751600503922,0.,           107P    130
3.14159265358979,0.,0.,0.;                                           107P    131
126,4,2,0,0,0,0,3.14159265358979,3.14159265358979,                   109P    132
3.14159265358979,4.71238898038469,4.71238898038469,                  109P    133
6.28318530717959,6.28318530717959,6.28318530717959,1.,               109P    134
0.707106781186547,1.,0.707106781186548,1.,14.3447327613831,15.,      109P    135
12.6751600503922,10.0947327613831,15.,12.6751600503922,              109P    136
10.0947327613831,15.,8.42516005039215,10.0947327613831,15.,          109P    137
4.17516005039215,14.3447327613831,15.,4.17516005039215,              109P    138
3.14159265358979,6.28318530717959,0.,0.,0.;                          109P    139
126,1,1,0,0,1,0,-0.512652416360247,-0.512652416360247,               111P    140
-0.371231060122937,-0.371231060122937,1.,1.,0.,0.,4.,1.,0.,5.,       111P    141
-0.512652416360247,-0.371231060122937,0.,0.,0.;                      111P    142
126,1,1,0,0,1,0,-0.75,-0.75,0.75,0.75,1.,1.,1.,0.,5.,1.,15.,5.,      113P    143
-0.75,0.75,0.,0.,0.;                                                 113P    144
126,1,1,0,0,1,0,0.371231060122937,0.371231060122937,                 115P    145
0.512652416360247,0.512652416360247,1.,1.,1.,15.,5.,0.,15.,4.,       115P    146
0.371231060122937,0.512652416360247,0.,0.,0.;                        115P    147
126,1,1,0,0,1,0,-0.75,-0.75,0.75,0.75,1.,1.,0.,15.,4.,0.,0.,4.,      117P    148
-0.75,0.75,0.,0.,0.;                                                 117P    149
126,1,1,0,0,1,0,-1.4,-1.4,-0.599999985098839,-0.599999985098839,     119P    150
1.,1.,1.,0.,5.,9.00000014901161,0.,5.,-1.4,-0.599999985098839,       119P    151
0.,0.,0.;                                                            119P    152
126,1,1,0,0,1,0,-0.75,-0.75,0.75,0.75,1.,1.,9.00000014901161,0.,     121P    153
5.,9.00000014901161,15.,5.,-0.75,0.75,0.,0.,0.;                      121P    154
126,1,1,0,0,1,0,0.599999985098839,0.599999985098839,1.4,1.4,1.,      123P    155
1.,9.00000014901161,15.,5.,1.,15.,5.,0.599999985098839,1.4,0.,       123P    156
0.,0.;                                                               123P    157
126,1,1,0,0,1,0,-0.15,-0.15,0.25,0.25,1.,1.,0.,0.,4.,0.,0.,0.,       125P    158
-0.15,0.25,0.,0.,0.;                                                 125P    159
126,1,1,0,0,1,0,-1.5,-1.5,1.5,1.5,1.,1.,30.,0.,0.,0.,0.,0.,-1.5,     127P    160
1.5,0.,0.,0.;                                                        127P    161
126,1,1,0,0,1,0,-0.15,-0.15,0.25,0.25,1.,1.,30.,0.,4.,30.,0.,0.,     129P    162
-0.15,0.25,0.,0.,0.;                                                 129P    163
126,1,1,0,0,1,0,0.371231060122938,0.371231060122938,                 131P    164
0.512652416360247,0.512652416360247,1.,1.,29.,0.,5.,30.,0.,4.,       131P    165
0.371231060122938,0.512652416360247,0.,0.,0.;                        131P    166
126,1,1,0,0,1,0,0.500000014901161,0.500000014901161,1.4,1.4,1.,      133P    167
1.,20.0000001490116,0.,5.,29.,0.,5.,0.500000014901161,1.4,0.,0.,     133P    168
0.;                                                                  133P    169
126,1,1,0,0,1,0,-0.4,-0.4,0.5,0.5,1.,1.,20.0000001490116,0.,14.,     135P    170
20.0000001490116,0.,5.,-0.4,0.5,0.,0.,0.;                            135P    171
126,1,1,0,0,1,0,-0.335875715795254,-0.335875715795254,               137P    172
-0.194454359557945,-0.194454359557945,1.,1.,19.0000001490116,0.,     137P    173
15.,20.0000001490116,0.,14.,-0.335875715795254,                      137P    174
-0.194454359557945,0.,0.,0.;                                         137P    175
126,1,1,0,0,1,0,-0.45,-0.45,0.45,0.45,1.,1.,10.0000001490116,0.,     139P    176
15.,19.0000001490116,0.,15.,-0.45,0.45,0.,0.,0.;                     139P    177
126,1,1,0,0,1,0,0.159099031035329,0.159099031035329,                 141P    178
0.300520387272639,0.300520387272639,1.,1.,9.00000014901161,0.,       141P    179
14.,10.0000001490116,0.,15.,0.159099031035329,0.300520387272639,     141P    180
0.,0.,0.;                                                            141P    181
126,1,1,0,0,1,0,-0.4,-0.4,0.5,0.5,1.,1.,9.00000014901161,0.,14.,     143P    182
9.00000014901161,0.,5.,-0.4,0.5,0.,0.,0.;                            143P    183
126,1,1,0,0,1,0,-0.512652416360247,-0.512652416360247,               145P    184
-0.371231060122938,-0.371231060122938,1.,1.,30.,15.,4.,29.,15.,      145P    185
5.,-0.512652416360247,-0.371231060122938,0.,0.,0.;                   145P    186
126,1,1,0,0,1,0,-0.75,-0.75,0.75,0.75,1.,1.,29.,15.,5.,29.,0.,       147P    187
5.,-0.75,0.75,0.,0.,0.;                                              147P    188
126,1,1,0,0,1,0,-0.75,-0.75,0.75,0.75,1.,1.,30.,0.,4.,30.,15.,       149P    189
4.,-0.75,0.75,0.,0.,0.;                                              149P    190
126,1,1,0,0,1,0,-0.75,-0.75,0.75,0.75,1.,1.,30.,15.,0.,30.,0.,       151P    191
0.,-0.75,0.75,0.,0.,0.;                                              151P    192
126,1,1,0,0,1,0,-0.15,-0.15,0.25,0.25,1.,1.,30.,15.,4.,30.,15.,      153P    193
0.,-0.15,0.25,0.,0.,0.;                                              153P    194
126,1,1,0,0,1,0,0.194454359557945,0.194454359557945,                 155P    195
0.335875715795254,0.335875715795254,1.,1.,20.0000001490116,15.,      155P    196
14.,19.0000001490116,15.,15.,0.194454359557945,                      155P    197
0.335875715795254,0.,0.,0.;                                          155P    198
126,1,1,0,0,1,0,-0.75,-0.75,0.75,0.75,1.,1.,19.0000001490116,        157P    199
15.,15.,19.0000001490116,0.,15.,-0.75,0.75,0.,0.,0.;                 157P    200
126,1,1,0,0,1,0,-0.75,-0.75,0.75,0.75,1.,1.,20.0000001490116,0.,     159P    201
14.,20.0000001490116,15.,14.,-0.75,0.75,0.,0.,0.;                    159P    202
126,1,1,0,0,1,0,-0.75,-0.75,0.75,0.75,1.,1.,20.0000001490116,        161P    203
15.,5.,20.0000001490116,0.,5.,-0.75,0.75,0.,0.,0.;                   161P    204
126,1,1,0,0,1,0,-0.4,-0.4,0.5,0.5,1.,1.,20.0000001490116,15.,        163P    205
14.,20.0000001490116,15.,5.,-0.4,0.5,0.,0.,0.;                       163P    206
126,1,1,0,0,1,0,-0.75,-0.75,0.75,0.75,1.,1.,10.0000001490116,0.,     165P    207
15.,10.0000001490116,15.,15.,-0.75,0.75,0.,0.,0.;                    165P    208
126,1,1,0,0,1,0,-0.300520387272639,-0.300520387272639,               167P    209
-0.159099031035329,-0.159099031035329,1.,1.,10.0000001490116,        167P    210
15.,15.,9.00000014901161,15.,14.,-0.300520387272639,                 167P    211
-0.159099031035329,0.,0.,0.;                                         167P    212
126,1,1,0,0,1,0,-0.75,-0.75,0.75,0.75,1.,1.,9.00000014901161,        169P    213
15.,14.,9.00000014901161,0.,14.,-0.75,0.75,0.,0.,0.;                 169P    214
126,1,1,0,0,1,0,-0.4,-0.4,0.5,0.5,1.,1.,9.00000014901161,15.,        171P    215
14.,9.00000014901161,15.,5.,-0.4,0.5,0.,0.,0.;                       171P    216
126,1,1,0,0,1,0,-0.45,-0.45,0.45,0.45,1.,1.,19.0000001490116,        173P    217
15.,15.,10.0000001490116,15.,15.,-0.45,0.45,0.,0.,0.;                173P    218
126,1,1,0,0,1,0,-1.4,-1.4,-0.500000014901161,-0.500000014901161,     175P    219
1.,1.,29.,15.,5.,20.0000001490116,15.,5.,-1.4,                       175P    220
-0.500000014901161,0.,0.,0.;                                         175P    221
126,1,1,0,0,1,0,-1.5,-1.5,1.5,1.5,1.,1.,0.,15.,0.,30.,15.,0.,        177P    222
-1.5,1.5,0.,0.,0.;                                                   177P    223
126,1,1,0,0,1,0,-0.75,-0.75,0.75,0.75,1.,1.,0.,0.,0.,0.,15.,0.,      179P    224
-0.75,0.75,0.,0.,0.;                                                 179P    225
126,1,1,0,0,1,0,-0.15,-0.15,0.25,0.25,1.,1.,0.,15.,4.,0.,15.,0.,     181P    226
-0.15,0.25,0.,0.,0.;                                                 181P    227
128,1,8,1,2,0,1,0,0,1,-3.,-3.,-1.,-1.,-3.14159265358979,             183P    228
-3.14159265358979,-3.14159265358979,-1.5707963267949,                183P    229
-1.5707963267949,0.,0.,1.5707963267949,1.5707963267949,              183P    230
3.14159265358979,3.14159265358979,3.14159265358979,1.,1.,            183P    231
0.707106781186548,0.707106781186548,1.,1.,0.707106781186548,         183P    232
0.707106781186548,1.,1.,0.707106781186548,0.707106781186548,1.,      183P    233
1.,0.707106781186548,0.707106781186548,1.,1.,23.1812153340532,       183P    234
7.52733411536869,5.,23.1812153340532,7.52733411536869,0.,            183P    235
23.1812153340532,10.0273341153687,5.,23.1812153340532,               183P    236
10.0273341153687,0.,25.6812153340532,10.0273341153687,5.,            183P    237
25.6812153340532,10.0273341153687,0.,28.1812153340532,               183P    238
10.0273341153687,5.,28.1812153340532,10.0273341153687,0.,            183P    239
28.1812153340532,7.52733411536869,5.,28.1812153340532,               183P    240
7.52733411536869,0.,28.1812153340532,5.02733411536869,5.,            183P    241
28.1812153340532,5.02733411536869,0.,25.6812153340532,               183P    242
5.02733411536869,5.,25.6812153340532,5.02733411536869,0.,            183P    243
23.1812153340532,5.02733411536869,5.,23.1812153340532,               183P    244
5.02733411536869,0.,23.1812153340532,7.52733411536869,5.,            183P    245
23.1812153340532,7.52733411536869,0.,-3.,-1.,-3.14159265358979,      183P    246
3.14159265358979;                                                    183P    247
128,1,8,1,2,0,1,0,0,1,-3.,-3.,-1.,-1.,-3.14159265358979,             185P    248
-3.14159265358979,-3.14159265358979,-1.5707963267949,                185P    249
-1.5707963267949,0.,0.,1.5707963267949,1.5707963267949,              185P    250
3.14159265358979,3.14159265358979,3.14159265358979,1.,1.,            185P    251
0.707106781186548,0.707106781186548,1.,1.,0.707106781186548,         185P    252
0.707106781186548,1.,1.,0.707106781186548,0.707106781186548,1.,      185P    253
1.,0.707106781186548,0.707106781186548,1.,1.,2.50000007450581,       185P    254
7.5,5.,2.50000007450581,7.5,0.,2.50000007450581,10.,5.,              185P    255
2.50000007450581,10.,0.,5.00000007450581,10.,5.,                     185P    256
5.00000007450581,10.,0.,7.5000000745058,10.,5.,7.5000000745058,      185P    257
10.,0.,7.50000007450581,7.5,5.,7.50000007450581,7.5,0.,              185P    258
7.5000000745058,5.,5.,7.5000000745058,5.,0.,5.00000007450581,5.,     185P    259
5.,5.00000007450581,5.,0.,2.50000007450581,5.,5.,                    185P    260
2.50000007450581,5.,0.,2.50000007450581,7.5,5.,2.50000007450581,     185P    261
7.5,0.,-3.,-1.,-3.14159265358979,3.14159265358979;                   185P    262
128,1,8,1,2,0,1,0,0,1,-1.76470588235294,-1.76470588235294,           187P    263
1.76470588235294,1.76470588235294,-3.14159265358979,                 187P    264
-3.14159265358979,-3.14159265358979,-1.5707963267949,                187P    265
-1.5707963267949,0.,0.,1.5707963267949,1.5707963267949,              187P    266
3.14159265358979,3.14159265358979,3.14159265358979,1.,1.,            187P    267
0.707106781186548,0.707106781186548,1.,1.,0.707106781186548,         187P    268
0.707106781186548,1.,1.,0.707106781186548,0.707106781186548,1.,      187P    269
1.,0.707106781186548,0.707106781186548,1.,1.,14.3447327613831,       187P    270
0.,12.6751600503922,14.3447327613831,15.,12.6751600503922,           187P    271
18.5947327613831,0.,12.6751600503921,18.5947327613831,15.,           187P    272
12.6751600503921,18.5947327613831,0.,8.42516005039215,               187P    273
18.5947327613831,15.,8.42516005039215,18.5947327613831,0.,           187P    274
4.17516005039215,18.5947327613831,15.,4.17516005039215,              187P    275
14.3447327613831,0.,4.17516005039215,14.3447327613831,15.,           187P    276
4.17516005039215,10.0947327613831,0.,4.17516005039215,               187P    277
10.0947327613831,15.,4.17516005039215,10.0947327613831,0.,           187P    278
8.42516005039215,10.0947327613831,15.,8.42516005039215,              187P    279
10.0947327613831,0.,12.6751600503921,10.0947327613831,15.,           187P    280
12.6751600503921,14.3447327613831,0.,12.6751600503922,               187P    281
14.3447327613831,15.,12.6751600503922,-1.76470588235294,             187P    282
1.76470588235294,-3.14159265358979,3.14159265358979;                 187P    283
128,1,1,1,1,0,0,1,0,0,-0.0717106781186548,-0.0717106781186548,       189P    284
0.0717106781186547,0.0717106781186547,-0.751,-0.751,0.751,0.751,     189P    285
1.,1.,1.,1.,-0.00707106781186621,-0.0100000000000022,                189P    286
3.99292893218813,1.00707106781187,-0.0100000000000022,               189P    287
5.00707106781187,-0.00707106781186621,15.01,3.99292893218813,        189P    288
1.00707106781187,15.01,5.00707106781187,-0.0717106781186548,         189P    289
0.0717106781186547,-0.751,0.751;                                     189P    290
128,1,1,1,1,0,0,1,0,0,-0.751,-0.751,0.751,0.751,                     191P    291
0.598999985098839,0.598999985098839,1.401,1.401,1.,1.,1.,1.,         191P    292
9.01000014901161,-0.01,5.,9.01000014901161,15.01,5.,                 191P    293
0.990000000000002,-0.01,5.,0.990000000000001,15.01,5.,-0.751,        191P    294
0.751,0.598999985098839,1.401;                                       191P    295
128,1,1,1,1,0,0,1,0,0,-1.251,-1.251,0.251,0.251,-1.501,-1.501,       193P    296
1.501,1.501,1.,1.,1.,1.,30.01,0.,-0.01,30.01,0.,15.01,               193P    297
-0.0099999999999989,0.,-0.0099999999999989,-0.0099999999999989,      193P    298
0.,15.01,-1.251,0.251,-1.501,1.501;                                  193P    299
128,1,1,1,1,0,0,1,0,0,-0.0717106781186551,-0.0717106781186551,       195P    300
0.0717106781186546,0.0717106781186546,-0.751,-0.751,0.751,0.751,     195P    301
1.,1.,1.,1.,28.9929289321881,-0.0100000000000022,                    195P    302
5.00707106781187,30.0070710678119,-0.0100000000000022,               195P    303
3.99292893218814,28.9929289321881,15.01,5.00707106781187,            195P    304
30.0070710678119,15.01,3.99292893218814,-0.0717106781186551,         195P    305
0.0717106781186546,-0.751,0.751;                                     195P    306
128,1,1,1,1,0,0,1,0,0,-0.251,-0.251,0.151,0.151,-0.751,-0.751,       197P    307
0.751,0.751,1.,1.,1.,1.,30.,-0.01,4.01,30.,-0.01,-0.01,30.,          197P    308
15.01,4.01,30.,15.01,-0.01,-0.251,0.151,-0.751,0.751;                197P    309
128,1,1,1,1,0,0,1,0,0,-0.0717106781186548,-0.0717106781186548,       199P    310
0.0717106781186551,0.0717106781186551,-0.751,-0.751,0.751,0.751,     199P    311
1.,1.,1.,1.,18.9929290811997,-0.0100000000000022,                    199P    312
15.0070710678119,20.0070712168235,-0.0100000000000022,               199P    313
13.9929289321881,18.9929290811997,15.01,15.0070710678119,            199P    314
20.0070712168235,15.01,13.9929289321881,-0.0717106781186548,         199P    315
0.0717106781186551,-0.751,0.751;                                     199P    316
128,1,1,1,1,0,0,1,0,0,-0.501,-0.501,0.401,0.401,-0.751,-0.751,       201P    317
0.751,0.751,1.,1.,1.,1.,20.0000001490116,-0.01,14.01,                201P    318
20.0000001490116,-0.01,4.99,20.0000001490116,15.01,14.01,            201P    319
20.0000001490116,15.01,4.99,-0.501,0.401,-0.751,0.751;               201P    320
128,1,1,1,1,0,0,1,0,0,-0.0717106781186551,-0.0717106781186551,       203P    321
0.0717106781186549,0.0717106781186549,-0.751,-0.751,0.751,0.751,     203P    322
1.,1.,1.,1.,8.99292908119974,-0.0100000000000022,                    203P    323
13.9929289321881,10.0070712168235,-0.0100000000000022,               203P    324
15.0070710678119,8.99292908119974,15.01,13.9929289321881,            203P    325
10.0070712168235,15.01,15.0070710678119,-0.0717106781186551,         203P    326
0.0717106781186549,-0.751,0.751;                                     203P    327
128,1,1,1,1,0,0,1,0,0,-0.401,-0.401,0.501,0.501,-0.751,-0.751,       205P    328
0.751,0.751,1.,1.,1.,1.,9.00000014901161,-0.01,4.99,                 205P    329
9.00000014901161,-0.01,14.01,9.00000014901161,15.01,4.99,            205P    330
9.00000014901161,15.01,14.01,-0.401,0.501,-0.751,0.751;              205P    331
128,1,1,1,1,0,0,1,0,0,-0.751,-0.751,0.751,0.751,-0.451,-0.451,       207P    332
0.451,0.451,1.,1.,1.,1.,19.0100001490116,-0.01,15.,                  207P    333
19.0100001490116,15.01,15.,9.99000014901161,-0.01,15.,               207P    334
9.99000014901161,15.01,15.,-0.751,0.751,-0.451,0.451;                207P    335
128,1,1,1,1,0,0,1,0,0,-0.751,-0.751,0.751,0.751,-1.401,-1.401,       209P    336
-0.499000014901161,-0.499000014901161,1.,1.,1.,1.,29.01,-0.01,       209P    337
5.,29.01,15.01,5.,19.9900001490116,-0.01,5.,19.9900001490116,        209P    338
15.01,5.,-0.751,0.751,-1.401,-0.499000014901161;                     209P    339
128,1,1,1,1,0,0,1,0,0,-0.751,-0.751,0.751,0.751,-1.501,-1.501,       211P    340
1.501,1.501,1.,1.,1.,1.,30.01,15.01,0.,30.01,-0.01,0.,               211P    341
-0.0099999999999989,15.01,0.,-0.0099999999999989,-0.01,0.,           211P    342
-0.751,0.751,-1.501,1.501;                                           211P    343
128,1,1,1,1,0,0,1,0,0,-0.151,-0.151,0.251,0.251,-0.751,-0.751,       213P    344
0.751,0.751,1.,1.,1.,1.,0.,-0.01,-0.01,0.,-0.01,4.01,0.,15.01,       213P    345
-0.01,0.,15.01,4.01,-0.151,0.251,-0.751,0.751;                       213P    346
128,1,1,1,1,0,0,1,0,0,-0.251,-0.251,1.251,1.251,-1.501,-1.501,       215P    347
1.501,1.501,1.,1.,1.,1.,30.01,15.,15.01,30.01,15.,-0.01,             215P    348
-0.0099999999999989,15.,15.01,-0.0099999999999989,15.,-0.01,         215P    349
-0.251,1.251,-1.501,1.501;                                           215P    350
502,34,28.1812153340532,7.52733411536869,5.,23.1812153340532,        217P    351
7.52733411536869,5.,23.1812153340532,7.52733411536869,0.,            217P    352
7.50000007450581,7.5,5.,2.50000007450581,7.5,5.,                     217P    353
2.50000007450581,7.5,0.,14.3447327613831,0.,4.17516005039215,        217P    354
14.3447327613831,0.,12.6751600503922,14.3447327613831,15.,           217P    355
12.6751600503922,14.3447327613831,15.,4.17516005039215,0.,0.,4.,     217P    356
1.,0.,5.,1.,15.,5.,0.,15.,4.,9.00000014901161,0.,5.,                 217P    357
9.00000014901161,15.,5.,0.,0.,0.,30.,0.,0.,30.,0.,4.,29.,0.,5.,      217P    358
20.0000001490116,0.,5.,20.0000001490116,0.,14.,19.0000001490116,     217P    359
0.,15.,10.0000001490116,0.,15.,9.00000014901161,0.,14.,30.,15.,      217P    360
4.,29.,15.,5.,30.,15.,0.,20.0000001490116,15.,14.,                   217P    361
19.0000001490116,15.,15.,20.0000001490116,15.,5.,                    217P    362
10.0000001490116,15.,15.,9.00000014901161,15.,14.,0.,15.,0.;         217P    363
504,49,85,217,1,217,2,87,217,2,217,1,89,217,2,217,3,91,217,3,        219P    364
217,3,93,217,4,217,5,95,217,5,217,4,97,217,5,217,6,99,217,6,217,     219P    365
6,101,217,7,217,8,103,217,8,217,7,105,217,8,217,9,107,217,10,        219P    366
217,9,109,217,9,217,10,111,217,11,217,12,113,217,12,217,13,115,      219P    367
217,13,217,14,117,217,14,217,11,119,217,12,217,15,121,217,15,        219P    368
217,16,123,217,16,217,13,125,217,11,217,17,127,217,18,217,17,        219P    369
129,217,19,217,18,131,217,20,217,19,133,217,21,217,20,135,217,       219P    370
22,217,21,137,217,23,217,22,139,217,24,217,23,141,217,25,217,24,     219P    371
143,217,25,217,15,145,217,26,217,27,147,217,27,217,20,149,217,       219P    372
19,217,26,151,217,28,217,18,153,217,26,217,28,155,217,29,217,30,     219P    373
157,217,30,217,23,159,217,22,217,29,161,217,31,217,21,163,217,       219P    374
29,217,31,165,217,24,217,32,167,217,32,217,33,169,217,33,217,25,     219P    375
171,217,33,217,16,173,217,30,217,32,175,217,27,217,31,177,217,       219P    376
34,217,28,179,217,17,217,34,181,217,14,217,34;                       219P    377
406,1,5HBody1;                                                       221P    378
314,24.7058823529412,24.7058823529412,24.7058823529412,54HEPX 15     223P    379
0 - Air Baked (with Carbon M2 M3 L1 3D Printers);                    223P    380
314,62.7450980392157,62.7450980392157,62.7450980392157,13HSteel      225P    381
- Satin;                                                             225P    382
S      1G      3D    226P    382                                        T      1
